<svg width="171" height="290" viewBox="0 0 171 290" fill="none" xmlns="http://www.w3.org/2000/svg">
<path d="M3.34286 248.017V246.455H14.252V248.017H9.67809V261H7.91673V248.017H3.34286ZM18.4192 254.438V261H16.7431V246.455H18.4192V251.795H18.5613C18.8169 251.232 19.2005 250.785 19.7118 250.453C20.2279 250.117 20.9145 249.949 21.7715 249.949C22.5149 249.949 23.1659 250.098 23.7246 250.396C24.2833 250.69 24.7166 251.142 25.0243 251.753C25.3368 252.359 25.4931 253.131 25.4931 254.068V261H23.8169V254.182C23.8169 253.315 23.592 252.645 23.1422 252.172C22.6971 251.694 22.0792 251.455 21.2885 251.455C20.7393 251.455 20.2469 251.571 19.8113 251.803C19.3804 252.035 19.0395 252.373 18.7885 252.818C18.5423 253.263 18.4192 253.803 18.4192 254.438ZM33.1333 261.227C32.0822 261.227 31.1755 260.995 30.4132 260.531C29.6556 260.062 29.0708 259.409 28.6589 258.571C28.2517 257.728 28.0481 256.748 28.0481 255.631C28.0481 254.513 28.2517 253.528 28.6589 252.676C29.0708 251.819 29.6438 251.152 30.3777 250.673C31.1163 250.19 31.978 249.949 32.9629 249.949C33.5311 249.949 34.0922 250.044 34.6461 250.233C35.2001 250.422 35.7044 250.73 36.1589 251.156C36.6135 251.578 36.9757 252.136 37.2456 252.832C37.5154 253.528 37.6504 254.385 37.6504 255.403V256.114H29.2413V254.665H35.9458C35.9458 254.049 35.8227 253.5 35.5765 253.017C35.335 252.534 34.9894 252.153 34.5396 251.874C34.0945 251.594 33.569 251.455 32.9629 251.455C32.2953 251.455 31.7176 251.62 31.2299 251.952C30.747 252.278 30.3753 252.705 30.1149 253.23C29.8545 253.756 29.7243 254.319 29.7243 254.92V255.886C29.7243 256.71 29.8663 257.409 30.1504 257.982C30.4392 258.55 30.8393 258.983 31.3507 259.281C31.862 259.575 32.4563 259.722 33.1333 259.722C33.5737 259.722 33.9714 259.66 34.3265 259.537C34.6864 259.409 34.9965 259.22 35.2569 258.969C35.5173 258.713 35.7186 258.396 35.8606 258.017L37.4799 258.472C37.3095 259.021 37.023 259.504 36.6206 259.92C36.2181 260.332 35.7209 260.654 35.1291 260.886C34.5372 261.114 33.872 261.227 33.1333 261.227ZM46.0524 246.455H48.1547L53.0978 258.528H53.2683L58.2115 246.455H60.3137V261H58.666V249.949H58.524L53.9785 261H52.3876L47.8422 249.949H47.7001V261H46.0524V246.455ZM68.0499 261.227C67.065 261.227 66.2009 260.993 65.4576 260.524C64.7189 260.055 64.1413 259.4 63.7246 258.557C63.3127 257.714 63.1067 256.729 63.1067 255.602C63.1067 254.466 63.3127 253.474 63.7246 252.626C64.1413 251.779 64.7189 251.121 65.4576 250.652C66.2009 250.183 67.065 249.949 68.0499 249.949C69.0347 249.949 69.8965 250.183 70.6351 250.652C71.3785 251.121 71.9561 251.779 72.3681 252.626C72.7847 253.474 72.9931 254.466 72.9931 255.602C72.9931 256.729 72.7847 257.714 72.3681 258.557C71.9561 259.4 71.3785 260.055 70.6351 260.524C69.8965 260.993 69.0347 261.227 68.0499 261.227ZM68.0499 259.722C68.798 259.722 69.4135 259.53 69.8965 259.146C70.3794 258.763 70.7369 258.259 70.9689 257.634C71.2009 257.009 71.3169 256.331 71.3169 255.602C71.3169 254.873 71.2009 254.194 70.9689 253.564C70.7369 252.934 70.3794 252.425 69.8965 252.037C69.4135 251.649 68.798 251.455 68.0499 251.455C67.3018 251.455 66.6863 251.649 66.2033 252.037C65.7203 252.425 65.3629 252.934 65.1309 253.564C64.8989 254.194 64.7828 254.873 64.7828 255.602C64.7828 256.331 64.8989 257.009 65.1309 257.634C65.3629 258.259 65.7203 258.763 66.2033 259.146C66.6863 259.53 67.3018 259.722 68.0499 259.722ZM84.0815 250.091L80.0474 261H78.3429L74.3088 250.091H76.127L79.1383 258.784H79.252L82.2633 250.091H84.0815ZM90.4771 261.227C89.426 261.227 88.5192 260.995 87.7569 260.531C86.9993 260.062 86.4146 259.409 86.0027 258.571C85.5955 257.728 85.3919 256.748 85.3919 255.631C85.3919 254.513 85.5955 253.528 86.0027 252.676C86.4146 251.819 86.9875 251.152 87.7214 250.673C88.46 250.19 89.3218 249.949 90.3066 249.949C90.8748 249.949 91.4359 250.044 91.9899 250.233C92.5439 250.422 93.0481 250.73 93.5027 251.156C93.9572 251.578 94.3194 252.136 94.5893 252.832C94.8592 253.528 94.9941 254.385 94.9941 255.403V256.114H86.585V254.665H93.2896C93.2896 254.049 93.1665 253.5 92.9203 253.017C92.6788 252.534 92.3332 252.153 91.8833 251.874C91.4383 251.594 90.9127 251.455 90.3066 251.455C89.639 251.455 89.0614 251.62 88.5737 251.952C88.0907 252.278 87.719 252.705 87.4586 253.23C87.1982 253.756 87.068 254.319 87.068 254.92V255.886C87.068 256.71 87.21 257.409 87.4941 257.982C87.783 258.55 88.1831 258.983 88.6944 259.281C89.2058 259.575 89.8 259.722 90.4771 259.722C90.9174 259.722 91.3152 259.66 91.6703 259.537C92.0301 259.409 92.3403 259.22 92.6007 258.969C92.8611 258.713 93.0623 258.396 93.2044 258.017L94.8237 258.472C94.6532 259.021 94.3668 259.504 93.9643 259.92C93.5618 260.332 93.0647 260.654 92.4728 260.886C91.881 261.114 91.2157 261.227 90.4771 261.227ZM103.396 261V246.455H105.157V252.932H112.913V246.455H114.675V261H112.913V254.494H105.157V261H103.396ZM117.974 261V250.091H119.65V261H117.974ZM118.826 248.273C118.499 248.273 118.217 248.161 117.981 247.939C117.749 247.716 117.633 247.449 117.633 247.136C117.633 246.824 117.749 246.556 117.981 246.334C118.217 246.111 118.499 246 118.826 246C119.153 246 119.432 246.111 119.664 246.334C119.901 246.556 120.019 246.824 120.019 247.136C120.019 247.449 119.901 247.716 119.664 247.939C119.432 248.161 119.153 248.273 118.826 248.273ZM130.447 252.534L128.941 252.96C128.847 252.709 128.707 252.465 128.522 252.229C128.342 251.987 128.096 251.788 127.784 251.632C127.471 251.476 127.071 251.398 126.583 251.398C125.916 251.398 125.359 251.552 124.914 251.859C124.474 252.162 124.254 252.548 124.254 253.017C124.254 253.434 124.405 253.763 124.708 254.004C125.011 254.246 125.485 254.447 126.129 254.608L127.748 255.006C128.723 255.242 129.45 255.605 129.928 256.092C130.407 256.575 130.646 257.198 130.646 257.96C130.646 258.585 130.466 259.144 130.106 259.636C129.751 260.129 129.254 260.517 128.615 260.801C127.975 261.085 127.232 261.227 126.384 261.227C125.272 261.227 124.351 260.986 123.622 260.503C122.892 260.02 122.431 259.314 122.237 258.386L123.828 257.989C123.979 258.576 124.266 259.016 124.687 259.31C125.113 259.603 125.669 259.75 126.356 259.75C127.137 259.75 127.758 259.584 128.217 259.253C128.681 258.917 128.913 258.514 128.913 258.045C128.913 257.667 128.78 257.349 128.515 257.094C128.25 256.833 127.843 256.639 127.294 256.511L125.475 256.085C124.476 255.848 123.742 255.482 123.274 254.984C122.81 254.482 122.578 253.855 122.578 253.102C122.578 252.487 122.75 251.942 123.096 251.469C123.446 250.995 123.922 250.624 124.524 250.354C125.13 250.084 125.816 249.949 126.583 249.949C127.663 249.949 128.51 250.186 129.126 250.659C129.746 251.133 130.186 251.758 130.447 252.534ZM137.913 250.091V251.511H132.26V250.091H137.913ZM133.907 247.477H135.584V257.875C135.584 258.348 135.652 258.704 135.79 258.94C135.932 259.172 136.112 259.329 136.329 259.409C136.552 259.485 136.786 259.523 137.032 259.523C137.217 259.523 137.369 259.513 137.487 259.494C137.605 259.471 137.7 259.452 137.771 259.438L138.112 260.943C137.998 260.986 137.84 261.028 137.636 261.071C137.433 261.118 137.175 261.142 136.862 261.142C136.389 261.142 135.925 261.04 135.47 260.837C135.02 260.633 134.646 260.323 134.348 259.906C134.054 259.49 133.907 258.964 133.907 258.33V247.477ZM144.749 261.227C143.764 261.227 142.9 260.993 142.157 260.524C141.418 260.055 140.84 259.4 140.424 258.557C140.012 257.714 139.806 256.729 139.806 255.602C139.806 254.466 140.012 253.474 140.424 252.626C140.84 251.779 141.418 251.121 142.157 250.652C142.9 250.183 143.764 249.949 144.749 249.949C145.734 249.949 146.596 250.183 147.334 250.652C148.078 251.121 148.655 251.779 149.067 252.626C149.484 253.474 149.692 254.466 149.692 255.602C149.692 256.729 149.484 257.714 149.067 258.557C148.655 259.4 148.078 260.055 147.334 260.524C146.596 260.993 145.734 261.227 144.749 261.227ZM144.749 259.722C145.497 259.722 146.113 259.53 146.596 259.146C147.079 258.763 147.436 258.259 147.668 257.634C147.9 257.009 148.016 256.331 148.016 255.602C148.016 254.873 147.9 254.194 147.668 253.564C147.436 252.934 147.079 252.425 146.596 252.037C146.113 251.649 145.497 251.455 144.749 251.455C144.001 251.455 143.385 251.649 142.903 252.037C142.42 252.425 142.062 252.934 141.83 253.564C141.598 254.194 141.482 254.873 141.482 255.602C141.482 256.331 141.598 257.009 141.83 257.634C142.062 258.259 142.42 258.763 142.903 259.146C143.385 259.53 144.001 259.722 144.749 259.722ZM152.251 261V250.091H153.87V251.739H153.984C154.183 251.199 154.543 250.761 155.063 250.425C155.584 250.089 156.171 249.92 156.825 249.92C156.948 249.92 157.102 249.923 157.286 249.928C157.471 249.932 157.611 249.939 157.705 249.949V251.653C157.649 251.639 157.518 251.618 157.315 251.589C157.116 251.556 156.905 251.54 156.683 251.54C156.152 251.54 155.679 251.651 155.262 251.874C154.85 252.091 154.524 252.394 154.282 252.783C154.045 253.166 153.927 253.604 153.927 254.097V261H152.251ZM161.104 265.091C160.82 265.091 160.566 265.067 160.344 265.02C160.121 264.977 159.968 264.935 159.882 264.892L160.308 263.415C160.716 263.519 161.075 263.557 161.388 263.528C161.7 263.5 161.977 263.36 162.219 263.109C162.465 262.863 162.69 262.463 162.894 261.909L163.206 261.057L159.172 250.091H160.99L164.002 258.784H164.115L167.127 250.091H168.945L164.314 262.591C164.106 263.154 163.848 263.621 163.54 263.99C163.232 264.364 162.875 264.641 162.468 264.821C162.065 265.001 161.61 265.091 161.104 265.091ZM12.9425 285L8.9652 270.455H10.755L13.7947 282.301H13.9368L17.0334 270.455H19.022L22.1186 282.301H22.2607L25.3004 270.455H27.0902L23.1129 285H21.2947L18.0845 273.409H17.9709L14.7607 285H12.9425ZM29.0575 285V274.091H30.7337V285H29.0575ZM29.9098 272.273C29.5831 272.273 29.3014 272.161 29.0646 271.939C28.8326 271.716 28.7166 271.449 28.7166 271.136C28.7166 270.824 28.8326 270.556 29.0646 270.334C29.3014 270.111 29.5831 270 29.9098 270C30.2365 270 30.5159 270.111 30.7479 270.334C30.9846 270.556 31.103 270.824 31.103 271.136C31.103 271.449 30.9846 271.716 30.7479 271.939C30.5159 272.161 30.2365 272.273 29.9098 272.273ZM35.4798 270.455V285H33.8036V270.455H35.4798ZM40.2259 270.455V285H38.5497V270.455H40.2259ZM49.7447 285H47.8981L53.239 270.455H55.0572L60.3981 285H58.5515L54.2049 272.756H54.0913L49.7447 285ZM50.4265 279.318H57.8697V280.881H50.4265V279.318ZM62.4364 289.091V274.091H64.0558V275.824H64.2546C64.3777 275.634 64.5482 275.393 64.766 275.099C64.9885 274.801 65.3058 274.536 65.7177 274.304C66.1344 274.067 66.6978 273.949 67.408 273.949C68.3266 273.949 69.1362 274.179 69.837 274.638C70.5378 275.097 71.0846 275.748 71.4776 276.591C71.8706 277.434 72.0671 278.428 72.0671 279.574C72.0671 280.729 71.8706 281.731 71.4776 282.578C71.0846 283.421 70.5401 284.074 69.8441 284.538C69.1481 284.998 68.3455 285.227 67.4364 285.227C66.7357 285.227 66.1746 285.111 65.7532 284.879C65.3318 284.643 65.0075 284.375 64.7802 284.077C64.5529 283.774 64.3777 283.523 64.2546 283.324H64.1126V289.091H62.4364ZM64.0842 279.545C64.0842 280.369 64.2049 281.096 64.4464 281.726C64.6879 282.351 65.0406 282.841 65.5046 283.196C65.9686 283.546 66.5368 283.722 67.2092 283.722C67.9099 283.722 68.4947 283.537 68.9634 283.168C69.4369 282.794 69.792 282.292 70.0288 281.662C70.2702 281.027 70.391 280.322 70.391 279.545C70.391 278.778 70.2726 278.087 70.0359 277.472C69.8039 276.851 69.4511 276.361 68.9776 276.001C68.5089 275.637 67.9194 275.455 67.2092 275.455C66.5273 275.455 65.9544 275.627 65.4904 275.973C65.0264 276.314 64.676 276.792 64.4393 277.408C64.2025 278.018 64.0842 278.731 64.0842 279.545ZM74.6239 289.091V274.091H76.2433V275.824H76.4421C76.5652 275.634 76.7357 275.393 76.9535 275.099C77.176 274.801 77.4933 274.536 77.9052 274.304C78.3219 274.067 78.8853 273.949 79.5955 273.949C80.5141 273.949 81.3237 274.179 82.0245 274.638C82.7253 275.097 83.2721 275.748 83.6651 276.591C84.0581 277.434 84.2546 278.428 84.2546 279.574C84.2546 280.729 84.0581 281.731 83.6651 282.578C83.2721 283.421 82.7276 284.074 82.0316 284.538C81.3356 284.998 80.533 285.227 79.6239 285.227C78.9232 285.227 78.3621 285.111 77.9407 284.879C77.5193 284.643 77.195 284.375 76.9677 284.077C76.7404 283.774 76.5652 283.523 76.4421 283.324H76.3001V289.091H74.6239ZM76.2717 279.545C76.2717 280.369 76.3924 281.096 76.6339 281.726C76.8754 282.351 77.2281 282.841 77.6921 283.196C78.1561 283.546 78.7243 283.722 79.3967 283.722C80.0974 283.722 80.6822 283.537 81.1509 283.168C81.6244 282.794 81.9795 282.292 82.2163 281.662C82.4577 281.027 82.5785 280.322 82.5785 279.545C82.5785 278.778 82.4601 278.087 82.2234 277.472C81.9914 276.851 81.6386 276.361 81.1651 276.001C80.6964 275.637 80.1069 275.455 79.3967 275.455C78.7148 275.455 78.1419 275.627 77.6779 275.973C77.2139 276.314 76.8635 276.792 76.6268 277.408C76.39 278.018 76.2717 278.731 76.2717 279.545ZM91.3853 285.227C90.3342 285.227 89.4274 284.995 88.6651 284.531C87.9076 284.062 87.3228 283.409 86.9109 282.571C86.5037 281.728 86.3001 280.748 86.3001 279.631C86.3001 278.513 86.5037 277.528 86.9109 276.676C87.3228 275.819 87.8957 275.152 88.6296 274.673C89.3683 274.19 90.23 273.949 91.2148 273.949C91.783 273.949 92.3441 274.044 92.8981 274.233C93.4521 274.422 93.9563 274.73 94.4109 275.156C94.8654 275.578 95.2276 276.136 95.4975 276.832C95.7674 277.528 95.9023 278.385 95.9023 279.403V280.114H87.4933V278.665H94.1978C94.1978 278.049 94.0747 277.5 93.8285 277.017C93.587 276.534 93.2414 276.153 92.7915 275.874C92.3465 275.594 91.8209 275.455 91.2148 275.455C90.5472 275.455 89.9696 275.62 89.4819 275.952C88.9989 276.278 88.6272 276.705 88.3668 277.23C88.1064 277.756 87.9762 278.319 87.9762 278.92V279.886C87.9762 280.71 88.1183 281.409 88.4023 281.982C88.6912 282.55 89.0913 282.983 89.6026 283.281C90.114 283.575 90.7082 283.722 91.3853 283.722C91.8256 283.722 92.2234 283.66 92.5785 283.537C92.9383 283.409 93.2485 283.22 93.5089 282.969C93.7693 282.713 93.9705 282.396 94.1126 282.017L95.7319 282.472C95.5614 283.021 95.275 283.504 94.8725 283.92C94.4701 284.332 93.9729 284.654 93.381 284.886C92.7892 285.114 92.1239 285.227 91.3853 285.227ZM101.662 285.256C100.971 285.256 100.344 285.125 99.7802 284.865C99.2167 284.6 98.7693 284.219 98.4379 283.722C98.1064 283.22 97.9407 282.614 97.9407 281.903C97.9407 281.278 98.0638 280.772 98.31 280.384C98.5562 279.991 98.8853 279.683 99.2972 279.46C99.7092 279.238 100.164 279.072 100.661 278.963C101.163 278.849 101.667 278.759 102.174 278.693C102.837 278.608 103.374 278.544 103.786 278.501C104.203 278.454 104.506 278.376 104.695 278.267C104.889 278.158 104.986 277.969 104.986 277.699V277.642C104.986 276.941 104.794 276.397 104.411 276.009C104.032 275.62 103.457 275.426 102.685 275.426C101.885 275.426 101.257 275.601 100.803 275.952C100.348 276.302 100.029 276.676 99.8441 277.074L98.2532 276.506C98.5373 275.843 98.9161 275.327 99.3896 274.957C99.8678 274.583 100.389 274.323 100.952 274.176C101.52 274.025 102.079 273.949 102.628 273.949C102.979 273.949 103.381 273.991 103.836 274.077C104.295 274.157 104.738 274.325 105.164 274.581C105.595 274.837 105.952 275.223 106.236 275.739C106.52 276.255 106.662 276.946 106.662 277.812V285H104.986V283.523H104.901C104.787 283.759 104.598 284.013 104.333 284.283C104.068 284.553 103.715 284.782 103.275 284.972C102.834 285.161 102.297 285.256 101.662 285.256ZM101.918 283.75C102.581 283.75 103.14 283.62 103.594 283.359C104.053 283.099 104.399 282.763 104.631 282.351C104.868 281.939 104.986 281.506 104.986 281.051V279.517C104.915 279.602 104.759 279.68 104.517 279.751C104.281 279.818 104.006 279.877 103.694 279.929C103.386 279.976 103.085 280.019 102.792 280.057C102.503 280.09 102.268 280.118 102.088 280.142C101.653 280.199 101.246 280.291 100.867 280.419C100.493 280.542 100.19 280.729 99.9577 280.98C99.7305 281.226 99.6168 281.562 99.6168 281.989C99.6168 282.571 99.8323 283.011 100.263 283.31C100.699 283.603 101.25 283.75 101.918 283.75ZM109.722 285V274.091H111.341V275.739H111.455C111.653 275.199 112.013 274.761 112.534 274.425C113.055 274.089 113.642 273.92 114.295 273.92C114.419 273.92 114.572 273.923 114.757 273.928C114.942 273.932 115.081 273.939 115.176 273.949V275.653C115.119 275.639 114.989 275.618 114.786 275.589C114.587 275.556 114.376 275.54 114.153 275.54C113.623 275.54 113.15 275.651 112.733 275.874C112.321 276.091 111.994 276.394 111.753 276.783C111.516 277.166 111.398 277.604 111.398 278.097V285H109.722ZM124.464 278.438V285H122.788V270.455H124.464V275.795H124.606C124.862 275.232 125.245 274.785 125.757 274.453C126.273 274.117 126.959 273.949 127.816 273.949C128.56 273.949 129.211 274.098 129.77 274.396C130.328 274.69 130.761 275.142 131.069 275.753C131.382 276.359 131.538 277.131 131.538 278.068V285H129.862V278.182C129.862 277.315 129.637 276.645 129.187 276.172C128.742 275.694 128.124 275.455 127.333 275.455C126.784 275.455 126.292 275.571 125.856 275.803C125.425 276.035 125.084 276.373 124.833 276.818C124.587 277.263 124.464 277.803 124.464 278.438ZM139.178 285.227C138.127 285.227 137.22 284.995 136.458 284.531C135.701 284.062 135.116 283.409 134.704 282.571C134.297 281.728 134.093 280.748 134.093 279.631C134.093 278.513 134.297 277.528 134.704 276.676C135.116 275.819 135.689 275.152 136.423 274.673C137.161 274.19 138.023 273.949 139.008 273.949C139.576 273.949 140.137 274.044 140.691 274.233C141.245 274.422 141.749 274.73 142.204 275.156C142.658 275.578 143.021 276.136 143.29 276.832C143.56 277.528 143.695 278.385 143.695 279.403V280.114H135.286V278.665H141.991C141.991 278.049 141.868 277.5 141.621 277.017C141.38 276.534 141.034 276.153 140.585 275.874C140.139 275.594 139.614 275.455 139.008 275.455C138.34 275.455 137.763 275.62 137.275 275.952C136.792 276.278 136.42 276.705 136.16 277.23C135.899 277.756 135.769 278.319 135.769 278.92V279.886C135.769 280.71 135.911 281.409 136.195 281.982C136.484 282.55 136.884 282.983 137.396 283.281C137.907 283.575 138.501 283.722 139.178 283.722C139.619 283.722 140.016 283.66 140.371 283.537C140.731 283.409 141.041 283.22 141.302 282.969C141.562 282.713 141.763 282.396 141.906 282.017L143.525 282.472C143.354 283.021 143.068 283.504 142.665 283.92C142.263 284.332 141.766 284.654 141.174 284.886C140.582 285.114 139.917 285.227 139.178 285.227ZM146.245 285V274.091H147.864V275.739H147.978C148.177 275.199 148.537 274.761 149.058 274.425C149.578 274.089 150.165 273.92 150.819 273.92C150.942 273.92 151.096 273.923 151.281 273.928C151.465 273.932 151.605 273.939 151.7 273.949V275.653C151.643 275.639 151.513 275.618 151.309 275.589C151.11 275.556 150.899 275.54 150.677 275.54C150.147 275.54 149.673 275.651 149.256 275.874C148.844 276.091 148.518 276.394 148.276 276.783C148.04 277.166 147.921 277.604 147.921 278.097V285H146.245ZM157.928 285.227C156.877 285.227 155.97 284.995 155.208 284.531C154.451 284.062 153.866 283.409 153.454 282.571C153.047 281.728 152.843 280.748 152.843 279.631C152.843 278.513 153.047 277.528 153.454 276.676C153.866 275.819 154.439 275.152 155.173 274.673C155.911 274.19 156.773 273.949 157.758 273.949C158.326 273.949 158.887 274.044 159.441 274.233C159.995 274.422 160.499 274.73 160.954 275.156C161.408 275.578 161.771 276.136 162.04 276.832C162.31 277.528 162.445 278.385 162.445 279.403V280.114H154.036V278.665H160.741C160.741 278.049 160.618 277.5 160.371 277.017C160.13 276.534 159.784 276.153 159.335 275.874C158.889 275.594 158.364 275.455 157.758 275.455C157.09 275.455 156.513 275.62 156.025 275.952C155.542 276.278 155.17 276.705 154.91 277.23C154.649 277.756 154.519 278.319 154.519 278.92V279.886C154.519 280.71 154.661 281.409 154.945 281.982C155.234 282.55 155.634 282.983 156.146 283.281C156.657 283.575 157.251 283.722 157.928 283.722C158.369 283.722 158.766 283.66 159.121 283.537C159.481 283.409 159.791 283.22 160.052 282.969C160.312 282.713 160.513 282.396 160.656 282.017L162.275 282.472C162.104 283.021 161.818 283.504 161.415 283.92C161.013 284.332 160.516 284.654 159.924 284.886C159.332 285.114 158.667 285.227 157.928 285.227Z" fill="white"/>
<path d="M3 132.5C3 178.063 39.9365 215 85.5 215C131.063 215 168 178.063 168 132.5C168 86.9365 131.063 50 85.5 50" stroke="white" stroke-width="5"/>
<path d="M100.5 88.9711L33 50L100.5 11.0289L100.5 88.9711Z" fill="#6B8F71" stroke="white" stroke-width="5"/>
</svg>
